<svg width="107" height="30" viewBox="0 0 107 30" fill="none" xmlns="http://www.w3.org/2000/svg">
<path fill-rule="evenodd" clip-rule="evenodd" d="M44.0762 10.714H40.2991C40.2991 10.714 40.2933 5.69365 40.2933 5.6924C40.2933 5.50242 40.1961 5.40732 39.9778 5.40732H34.8304C34.6304 5.40732 34.5228 5.49594 34.5228 5.68948V10.8789C34.5228 10.8789 31.9434 11.5055 31.769 11.5561C31.5951 11.6067 31.4674 11.768 31.4674 11.9603V15.2213C31.4674 15.4558 31.6537 15.645 31.8838 15.645H34.5228V23.4898C34.5228 29.3169 38.5844 29.8894 41.325 29.8894C42.5773 29.8894 44.0754 29.4847 44.3227 29.3928C44.4723 29.3374 44.5591 29.1815 44.5591 29.0124L44.5634 25.4251C44.5634 25.1913 44.3669 25.0019 44.146 25.0019C43.9258 25.0019 43.3626 25.092 42.783 25.092C40.9277 25.092 40.2991 24.2238 40.2991 23.1V15.645H44.0762C44.3065 15.645 44.493 15.4558 44.493 15.2213V11.1366C44.493 10.9028 44.3065 10.714 44.0762 10.714ZM99.29 10.1901C96.452 10.1901 94.5216 11.4644 94.5216 11.4644V2.4853C94.5216 2.25122 94.3359 2.06228 94.1062 2.06228H89.0566C88.8272 2.06228 88.6404 2.25122 88.6404 2.4853V29.0015C88.6404 29.2356 88.8272 29.426 89.0573 29.426H92.5609C92.7187 29.426 92.8381 29.3441 92.9262 29.2007C93.0134 29.0582 93.1389 27.9781 93.1389 27.9781C93.1389 27.9781 95.2038 29.9473 99.1126 29.9473C103.702 29.9473 106.333 27.605 106.333 19.4314C106.333 11.2581 102.13 10.1901 99.29 10.1901ZM97.3193 25.13C95.586 25.0769 94.4105 24.2855 94.4105 24.2855V15.8883C94.4105 15.8883 95.5704 15.1728 96.9932 15.0449C98.7928 14.8828 100.527 15.4297 100.527 19.7495C100.527 24.3047 99.744 25.2036 97.3193 25.13ZM85.8064 10.7596H80.8096C80.5805 10.7596 80.3938 10.9496 80.3938 11.1835V24.1853C80.3938 24.1853 79.1245 25.1198 77.3226 25.1198C75.521 25.1198 75.0427 24.2974 75.0427 22.5221V11.1835C75.0427 10.9496 74.8566 10.7596 74.6271 10.7596H69.5561C69.327 10.7596 69.1397 10.9496 69.1397 11.1835V23.3805C69.1397 28.6536 72.0599 29.9437 76.0778 29.9437C79.3735 29.9437 82.031 28.1114 82.031 28.1114C82.031 28.1114 82.1574 29.077 82.2148 29.1917C82.2721 29.3058 82.4212 29.421 82.5824 29.421L85.8085 29.4068C86.0376 29.4068 86.2249 29.2164 86.2249 28.9836L86.2234 11.1835C86.2234 10.9496 86.0367 10.7596 85.8064 10.7596ZM29.5839 23.4219V11.182C29.5839 10.9496 29.3974 10.7596 29.1673 10.7596H24.1476C23.9175 10.7596 23.7113 10.9987 23.7113 11.2311V28.767C23.7113 29.2826 24.0305 29.4358 24.4436 29.4358H28.9659C29.4622 29.4358 29.5839 29.1909 29.5839 28.7589V23.4219ZM29.9835 6.03056C29.9835 4.20578 28.5297 2.73129 26.7362 2.73129C24.9445 2.73129 23.4897 4.20578 23.4897 6.03056C23.4897 7.85325 24.9445 9.33172 26.7362 9.33172C28.5297 9.33172 29.9835 7.85325 29.9835 6.03056ZM66.5613 2.4853C66.5613 2.25122 66.3769 2.06228 66.1462 2.06228H61.1107C60.8808 2.06228 60.6939 2.25122 60.6939 2.4853C60.6939 2.48655 60.6951 12.2782 60.6951 12.2782H52.8462V2.4853C52.8462 2.25122 52.661 2.06228 52.4308 2.06228H47.3954C47.1663 2.06228 46.9794 2.25122 46.9794 2.4853V29.0015C46.9794 29.2356 47.1663 29.426 47.3954 29.426H52.4308C52.661 29.426 52.8462 29.2356 52.8462 29.0015V17.6595H60.6951C60.6951 17.6595 60.6812 29.0007 60.6812 29.0015C60.6812 29.2356 60.8681 29.426 61.0984 29.426H66.1458C66.3765 29.426 66.5609 29.2356 66.5613 29.0015V2.4853ZM20.4976 13.3437H11.5544C11.3239 13.3437 11.1367 13.5322 11.1367 13.7644V18.1645C11.1367 18.3967 11.3239 18.5858 11.5544 18.5858H15.0432V24.0524C15.0432 24.0524 14.2599 24.321 12.0941 24.321C9.53903 24.321 5.96982 23.3817 5.96982 15.483C5.96982 7.5828 9.68651 6.54345 13.1758 6.54345C16.1963 6.54345 17.4974 7.07849 18.3255 7.33639C18.5855 7.41665 18.8262 7.15603 18.8262 6.92362L19.8239 2.67214C19.8239 2.56367 19.7873 2.43263 19.664 2.3438C19.3279 2.10241 17.2764 0.947266 12.0941 0.947266C6.12411 0.947266 0 3.50334 0 15.7911C0 28.0792 7.01156 29.9103 12.9197 29.9103C17.8119 29.9103 20.7796 27.8067 20.7796 27.8067C20.902 27.7386 20.9153 27.5665 20.9153 27.4875V13.7644C20.9153 13.5322 20.7281 13.3437 20.4976 13.3437Z" fill="#515491"/>
</svg>
