<svg width="89" height="34" viewBox="0 0 89 34" fill="none" xmlns="http://www.w3.org/2000/svg">
<g clip-path="url(#clip0)">
<path fill-rule="evenodd" clip-rule="evenodd" d="M79.6223 18.3561C77.5894 19.1448 76.4698 21.3354 76.3245 23.4196C78.2994 23.374 80.4354 23.192 82.0887 21.9966C83.0294 21.3261 83.6938 19.9305 82.9807 18.872C82.2039 17.8737 80.6994 17.9588 79.6223 18.3561ZM25.5609 0.543916C27.5114 1.29329 28.895 3.1047 29.3835 5.10391C30.1116 8.05311 29.7414 11.2264 28.5854 14.0175C26.8564 14.4028 24.5808 14.045 23.6645 12.3762C24.1561 10.3801 24.6689 8.16826 23.7982 6.19918C23.4005 5.27398 22.2507 4.78857 21.3224 5.2133C20.3122 5.64689 19.9207 6.79708 19.7812 7.80731C19.4929 10.2857 20.054 13.0011 21.7986 14.867C23.2548 16.4476 25.4635 17.1939 27.5876 17.0969C30.4695 17.0305 33.2911 15.7621 35.2239 13.6171C36.7164 13.6047 38.2121 13.6078 39.7051 13.6171C39.7108 17.352 39.6989 21.0838 39.7108 24.8183C39.7471 26.0743 39.8021 27.4672 40.609 28.5013C41.3159 29.4146 42.7326 29.3145 43.5701 28.6408C44.7562 27.7249 45.3572 26.2869 45.8577 24.9215C47.0561 21.2747 47.4627 17.4278 47.6841 13.614C49.2161 13.6078 50.7485 13.6078 52.2805 13.6171C52.3349 14.8913 52.3686 16.1686 52.4169 17.4459C53.5272 15.7408 55.1172 14.2784 57.0925 13.6654C59.0704 13.0405 61.455 13.1561 63.0932 14.5454C64.5711 15.8046 65.1411 17.8011 65.2354 19.6759C65.3293 22.1029 65.1991 24.533 65.3019 26.9574C65.3812 27.7706 65.6053 28.7835 66.4702 29.093C67.55 29.4358 68.5451 28.6107 69.0731 27.7431C70.6843 25.1704 70.7844 22.0059 72.1498 19.3269C73.2996 16.8879 75.2713 14.7093 77.8808 13.8324C80.2472 13.056 82.9776 13.0773 85.2075 14.2633C87.0672 15.2434 88.2994 17.2732 88.2839 19.3756C88.4052 21.4386 87.3618 23.4834 85.6628 24.6393C83.114 26.4415 79.8769 26.7811 76.84 26.7754C77.3985 27.7582 78.2994 28.5438 79.3915 28.8685C82.1344 29.706 85.1956 29.093 87.5469 27.488C87.5407 29.1085 87.562 30.7286 87.5407 32.3456C85.5747 33.7048 83.0263 33.9657 80.687 33.9294C77.2373 33.8506 73.6424 32.1512 72.0374 28.9748C71.036 31.6507 68.5212 33.9989 65.5357 33.9351C63.5786 33.9901 61.6432 32.8855 60.7574 31.1321C59.5045 28.8322 59.9137 26.1412 59.8441 23.6353C59.7954 22.1516 60.023 20.5709 59.3831 19.1785C58.8064 18.0376 57.2559 18.089 56.2549 18.5775C54.568 19.4088 53.773 21.2898 53.327 23.013C52.4869 26.472 52.8904 30.0581 52.7841 33.5773C50.9788 33.5773 49.1736 33.5804 47.3715 33.5742C47.3564 32.0241 47.3777 30.4704 47.3595 28.9203C46.5889 30.4461 45.5724 31.8996 44.1282 32.8554C42.214 34.1841 39.5469 34.3023 37.5083 33.1982C35.8094 32.2482 34.9387 30.3522 34.5684 28.5195C33.9736 25.3856 34.3195 22.1729 34.2318 19.0053C31.741 20.7043 28.6704 21.2658 25.7062 21.3504C23.78 25.2824 21.1192 28.8472 17.9698 31.8815C16.9839 32.7641 15.9432 33.82 14.5388 33.8988C13.2796 33.9351 12.2388 33.0981 11.3193 32.3394C8.44055 29.8211 6.40149 26.4959 4.79956 23.0587C2.21486 17.449 0.86452 11.3597 0 5.27088V5.04013C1.92657 5.04633 3.85314 5.03128 5.77661 5.04633C6.31649 9.33926 7.12076 13.6233 8.59204 17.7037C9.96943 21.59 12.0324 25.231 14.6782 28.3955C17.0627 26.0017 18.98 23.1738 20.5062 20.1675C16.7625 18.2258 14.5781 14.0906 14.3536 9.96418C14.129 7.12747 14.7814 4.02104 16.8927 1.98198C19.1408 -0.208554 22.7118 -0.533192 25.5609 0.543916ZM39.6838 4.57598C41.167 5.92901 41.1519 8.54738 39.6807 9.9035C38.1939 11.3022 35.4059 11.0776 34.335 9.27239C33.0971 7.3095 34.0161 4.07552 36.5251 3.75088C37.6266 3.5538 38.8494 3.7965 39.6838 4.57598Z" fill="#515491"/>
</g>
<defs>
<clipPath id="clip0">
<rect width="89" height="34" fill="white"/>
</clipPath>
</defs>
</svg>
