<?xml version="1.0" encoding="UTF-8" standalone="no"?>
<!DOCTYPE svg PUBLIC "-//W3C//DTD SVG 1.1//EN" "http://www.w3.org/Graphics/SVG/1.1/DTD/svg11.dtd">
<svg width="100%" height="100%" viewBox="0 0 161 33" version="1.1" xmlns="http://www.w3.org/2000/svg" xmlns:xlink="http://www.w3.org/1999/xlink" xml:space="preserve" style="fill-rule:evenodd;clip-rule:evenodd;stroke-linejoin:round;stroke-miterlimit:2;">
    <g transform="matrix(1,0,0,0.991562,0.270017,-0.262024)">
        <path d="M15.563,21.82C23.309,26.303 32.889,29.002 42.783,29.002C49.458,29.002 56.795,27.626 63.546,24.777C64.564,24.348 65.418,25.445 64.421,26.176C58.4,30.596 49.668,32.947 42.151,32.947C31.614,32.947 22.126,29.074 14.946,22.626C14.383,22.12 14.885,21.427 15.563,21.82ZM69.842,20.748C70.508,21.584 69.668,27.37 66.417,30.132C65.916,30.557 65.441,30.33 65.663,29.77C66.393,27.915 68.032,23.761 67.256,22.753C66.48,21.745 62.131,22.276 60.177,22.513C59.586,22.584 59.494,22.06 60.027,21.68C63.497,19.205 69.181,19.921 69.842,20.748ZM34.376,1.812C35.725,1.812 37.193,2.373 38.092,3.635C39.111,5.038 38.901,7.071 38.901,8.86L38.899,19.374C38.899,19.707 38.621,19.974 38.279,19.974L35.073,19.974C34.752,19.953 34.497,19.695 34.497,19.375L34.496,10.543C34.496,9.841 34.556,8.088 34.406,7.422C34.167,6.3 33.448,5.984 32.519,5.984C31.74,5.984 30.931,6.511 30.601,7.352C30.331,8.04 30.302,9.104 30.301,9.987L30.302,19.374C30.302,19.707 30.024,19.974 29.682,19.974L26.476,19.974C26.154,19.953 25.9,19.695 25.9,19.375L25.897,10.543C25.897,8.684 26.196,5.949 23.92,5.949C21.612,5.949 21.702,8.614 21.702,10.543L21.701,19.374C21.701,19.707 21.423,19.974 21.082,19.974L17.872,19.974C17.567,19.954 17.322,19.722 17.297,19.425L17.299,2.763C17.299,2.43 17.577,2.163 17.919,2.163L20.909,2.162C21.221,2.178 21.472,2.418 21.492,2.722L21.492,4.897L21.552,4.897C22.331,2.794 23.799,1.812 25.777,1.812C27.785,1.812 29.043,2.794 29.942,4.897C30.721,2.794 32.489,1.812 34.376,1.812ZM80.805,1.812C85.615,1.812 88.216,5.871 88.216,11.031C88.216,16.018 85.343,19.974 80.805,19.974C76.085,19.974 73.513,15.915 73.513,10.858C73.513,5.768 76.115,1.812 80.805,1.812ZM71.7,1.812C72.046,1.813 72.323,2.059 72.324,2.409L72.323,4.436C72.32,4.775 72.028,5.219 71.51,5.923L65.917,13.756C67.993,13.708 70.189,14.012 72.075,15.053C72.501,15.287 72.615,15.634 72.649,15.975L72.649,18.496C72.649,18.843 72.261,19.246 71.854,19.037C68.53,17.329 64.119,17.142 60.444,19.057C60.069,19.254 59.676,18.857 59.676,18.51L59.676,16.113C59.676,15.73 59.683,15.073 60.078,14.489L66.558,5.371L60.916,5.37C60.571,5.37 60.294,5.128 60.291,4.775L60.291,2.412C60.293,2.052 60.57,1.813 60.902,1.813L71.7,1.812ZM99.272,1.812C100.687,1.812 102.073,2.338 102.958,3.776C103.735,5.029 103.781,7.091 103.784,8.674L103.784,19.449C103.748,19.745 103.49,19.974 103.179,19.974L100.012,19.974C99.719,19.955 99.484,19.733 99.45,19.449L99.45,10.402C99.45,8.579 99.656,5.914 97.474,5.914C96.707,5.914 96,6.44 95.646,7.246C95.204,8.263 95.145,9.28 95.145,10.402L95.145,19.374C95.139,19.707 94.866,19.974 94.529,19.974L91.383,19.974C91.066,19.953 90.816,19.695 90.816,19.375L90.811,2.707C90.838,2.403 91.099,2.163 91.418,2.163L94.348,2.162C94.623,2.177 94.851,2.371 94.909,2.63L94.909,5.177L94.968,5.177C95.853,2.899 97.091,1.812 99.272,1.812ZM108.109,16.515C109.064,16.515 109.838,17.289 109.838,18.245C109.838,19.2 109.064,19.974 108.109,19.974C107.153,19.974 106.378,19.2 106.378,18.245C106.378,17.289 107.153,16.515 108.109,16.515ZM156.306,1.812C157.866,1.812 159.365,2.823 160.145,4.357C160.894,5.821 160.865,7.773 160.865,9.412L160.864,19.379C160.865,19.696 160.61,19.953 160.288,19.974L158.876,19.974C158.572,19.964 158.323,19.746 158.282,19.46L158.282,9.412C158.282,8.226 158.342,6.971 157.862,5.891C157.372,4.784 156.438,4.097 155.433,4.046C154.312,4.102 153.282,4.92 152.617,6.03C151.855,7.281 151.784,8.425 151.778,9.812L151.777,19.465C151.738,19.74 151.5,19.955 151.206,19.974L149.802,19.974C149.469,19.963 149.201,19.703 149.201,19.379L149.195,8.75C149.195,7.773 149.135,6.622 148.685,5.751C148.167,4.748 147.236,4.098 146.261,4.046C145.249,4.103 144.226,4.88 143.619,5.786C142.84,6.936 142.69,8.366 142.69,9.83L142.689,19.379C142.689,19.696 142.434,19.953 142.112,19.974L140.707,19.974C140.374,19.963 140.108,19.703 140.108,19.379L140.108,2.81C140.131,2.518 140.377,2.285 140.682,2.265L141.863,2.265C142.187,2.265 142.453,2.503 142.479,2.81L142.479,5.226C143.318,3.312 144.881,1.812 146.856,1.812L146.98,1.814L147.099,1.812C149.194,1.812 150.727,3.365 151.296,5.621C152.184,3.394 153.857,1.812 156.063,1.812L156.177,1.814L156.306,1.812ZM130.864,1.812C135.307,1.812 137.513,6.259 137.513,10.842C137.513,15.699 135.068,19.974 130.476,19.974L130.359,19.973L130.235,19.974C125.703,19.974 123.676,15.39 123.676,10.808C123.676,5.985 126.061,1.812 130.623,1.812L130.74,1.813L130.864,1.812ZM80.835,5.149C81.863,5.149 82.59,5.596 82.953,6.731C83.376,8.038 83.437,9.689 83.437,11.065C83.437,13.163 83.316,16.603 80.805,16.603C78.441,16.603 78.302,12.912 78.294,10.791L78.294,10.183C78.303,8.181 78.507,5.149 80.835,5.149ZM116.766,1.812C119.991,1.812 122.292,4.199 122.792,7.766C122.792,8.034 122.534,8.265 122.23,8.299L120.774,8.283C120.472,8.242 120.272,7.988 120.226,7.708C119.876,5.718 118.685,4.134 116.701,4.072C113.541,4.168 112.642,7.904 112.642,10.774C112.642,13.543 113.392,17.58 116.552,17.681C118.652,17.617 119.755,16 120.212,13.905C120.302,13.644 120.511,13.443 120.817,13.443L122.206,13.437C122.534,13.453 122.835,13.694 122.809,13.988C122.168,17.552 119.928,19.974 116.735,19.974L116.606,19.973L116.485,19.974C111.838,19.974 109.838,15.494 109.838,10.944C109.838,6.429 111.869,1.812 116.516,1.812L116.639,1.813L116.766,1.812ZM50.208,0.947C51.792,0.947 53.864,1.36 55.113,2.53C56.634,3.916 56.554,5.747 56.545,7.748L56.544,12.95C56.544,14.439 57.178,15.093 57.774,15.895C57.981,16.184 58.028,16.528 57.763,16.739C57.097,17.283 55.916,18.286 55.265,18.85L55.258,18.843C55.042,19.031 54.732,19.044 54.488,18.917C53.407,18.04 53.213,17.634 52.622,16.799C50.834,18.576 49.568,19.109 47.253,19.109C44.511,19.109 42.378,17.458 42.378,14.157C42.378,11.576 43.81,9.822 45.851,8.962C47.619,8.205 50.086,8.068 51.975,7.861L51.975,7.448C51.975,6.692 52.035,5.797 51.579,5.144C51.183,4.559 50.421,4.318 49.75,4.318C48.509,4.318 47.405,4.939 47.133,6.227C47.077,6.513 46.863,6.796 46.568,6.811L43.411,6.477C43.145,6.419 42.848,6.21 42.925,5.813C43.651,2.076 47.109,0.947 50.208,0.947ZM130.564,4.003C131.832,4.05 133.03,4.827 133.724,6.053C134.498,7.455 134.678,9.165 134.678,10.808C134.678,12.312 134.558,13.886 133.933,15.254C133.236,16.784 132.06,17.7 130.569,17.749C129.242,17.702 128.013,16.858 127.376,15.562C126.72,14.194 126.511,12.381 126.511,10.808C126.511,9.405 126.69,7.729 127.257,6.463C127.894,5.001 129.153,4.054 130.564,4.003ZM7.83,0.947C9.413,0.947 11.485,1.36 12.734,2.53C14.318,3.974 14.166,5.901 14.166,7.999L14.166,12.95C14.166,14.439 14.8,15.093 15.395,15.895C15.603,16.184 15.65,16.528 15.385,16.739C14.72,17.283 13.537,18.286 12.887,18.85L12.88,18.843C12.664,19.031 12.353,19.044 12.11,18.917C11.028,18.04 10.835,17.634 10.243,16.799C8.456,18.576 7.189,19.109 4.875,19.109C2.132,19.109 0,17.458 0,14.157C0,11.576 1.432,9.822 3.473,8.962C5.24,8.205 7.708,8.068 9.596,7.861L9.596,7.448C9.596,6.692 9.657,5.797 9.2,5.144C8.804,4.559 8.042,4.318 7.372,4.318C6.13,4.318 5.026,4.939 4.755,6.227C4.698,6.513 4.485,6.796 4.189,6.811L1.033,6.477C0.766,6.419 0.47,6.21 0.547,5.813C1.272,2.076 4.73,0.947 7.83,0.947ZM51.975,10.407L51.974,11.614C51.97,12.629 51.914,13.522 51.365,14.466C50.847,15.361 50.025,15.91 49.111,15.91C47.862,15.91 47.131,14.981 47.131,13.606C47.131,10.899 49.618,10.407 51.975,10.407ZM9.596,11.095C9.596,12.333 9.627,13.365 8.987,14.466C8.469,15.361 7.646,15.91 6.732,15.91C5.484,15.91 4.753,14.981 4.753,13.606C4.753,10.899 7.24,10.407 9.596,10.407L9.596,11.095Z" style="fill:rgb(81,84,145);"/>
    </g>
</svg>
