<svg width="106" height="46" viewBox="0 0 106 46" fill="none" xmlns="http://www.w3.org/2000/svg">
<path fill-rule="evenodd" clip-rule="evenodd" d="M85.7472 7.35332C86.1147 7.86499 85.7812 9.46585 86.1818 9.42159C86.5741 9.37417 87.9288 6.74146 87.4767 5.83532C87.0228 4.9284 83.8343 3.86977 83.2928 3.8329C81.1358 3.70262 80.4973 5.44054 80.2431 6.8281C80.1329 7.4543 78.0745 11.961 78.1758 11.8238L82.4292 6.98879C83.1663 6.24774 85.2153 6.61858 85.7472 7.35332ZM65.016 43.3039C64.8532 43.7006 64.3246 43.0706 64.4901 42.6263C64.5321 42.5027 65.1853 41.0707 66.6137 41.3738C67.0096 41.459 65.5325 42.0291 65.016 43.3039ZM87.4996 21.9331C88.4683 21.3638 91.3015 16.9086 91.4042 17.1439C91.5036 17.3775 91.6623 18.6153 91.3518 19.48C90.9422 20.6171 87.4996 21.9331 87.4996 21.9331ZM93.0867 12.1876C92.9973 11.9655 95.5735 16.8659 95.0648 19.0304C94.2457 22.4609 91.1992 24.8281 91.1992 24.8281C91.1992 24.8281 92.661 22.0196 92.8772 21.5212C93.0941 21.0183 94.55 15.9126 93.0867 12.1876ZM100.35 15.0251C101.882 17.6756 99.7727 20.681 99.3081 21.1106C98.9319 21.4662 98.1614 21.8849 97.6392 22.1447C98.5617 21.2875 99.4138 20.2179 99.6575 18.9653C99.9003 17.6884 99.501 16.4174 98.8413 14.9876C98.714 14.7139 96.3805 11.2581 96.1748 11.0592C96.5649 11.1239 99.5616 13.264 100.35 15.0251ZM101.322 21.2587C103.25 19.3229 103.55 17.2736 103.647 16.4243C104.01 18.2626 102.965 20.9022 102.126 22.1044C101.411 22.1371 100.721 22.2268 100.073 22.338C100.557 22.0736 100.873 21.7135 101.322 21.2587ZM92.7496 33.9054C89.9105 37.553 85.1289 37.4096 81.8623 38.7234C78.0491 40.2575 75.4504 42.9548 74.7678 43.6379C73.5963 44.8058 72.1131 44.5064 71.3153 44.4569C70.5175 44.4084 69.7394 43.9999 69.4191 43.9429C69.0959 43.8767 68.3324 43.961 68.3324 43.961C68.3324 43.961 68.3563 43.5949 68.6332 43.4146C68.9115 43.2341 69.4763 43.1749 70.4766 42.9735C71.4832 42.7724 72.2452 42.2268 72.6427 41.9671C73.0444 41.7063 72.7833 41.6216 72.5196 41.6846C72.2651 41.7462 71.4593 42.0676 70.0585 42.2686C68.657 42.4734 68.2154 42.3678 67.6727 42.7338C67.1316 43.0944 67.2512 44.0237 67.1316 44.2814C67.0096 44.542 66.9113 44.6048 66.7316 44.4411C66.5519 44.2814 66.4749 43.6577 66.6134 43.1314C66.7548 42.6098 67.5757 42.1904 68.3324 42.0058C69.0959 41.8261 70.7375 41.7207 72.5019 40.7785C77.7369 37.9898 80.0401 35.8903 84.6735 32.3C89.6027 28.4829 93.9937 26.3801 97.4509 24.6953C99.5806 23.6561 105.906 22.8819 105.906 22.8819C105.906 22.8819 105.003 22.2655 104.059 22.1619C103.501 22.0995 102.946 22.0806 102.406 22.0954C103.261 21.6283 105.467 19.9192 105.791 17.7282C106.219 14.7915 102.348 12.3749 102.293 9.70405C102.169 3.49483 95.9631 2.62178 96.2466 2.79412C97.4142 3.51122 98.608 4.91311 98.8319 5.72394C99.2336 7.18712 98.0035 8.78767 96.1971 9.39229C95.3359 9.68073 90.572 10.7288 89.9349 11.3731C89.2887 12.0146 90.6067 15.4024 89.7656 16.7696C88.921 18.1403 84.1813 20.4877 83.6229 21.1535C83.0583 21.814 82.4593 21.6165 82.2562 21.5965C82.0589 21.5739 82.217 21.8397 82.7992 21.9578C83.3829 22.0803 84.3834 21.7356 84.965 21.4178C85.5457 21.0894 86.3588 21.7852 86.322 22.2299C86.2779 22.6675 85.731 22.8048 84.6643 23.4758C83.8108 24.0189 81.3958 22.5002 81.195 21.996C80.9977 21.4938 81.7003 21.6593 82.1391 21.1098C82.5784 20.5701 81.8175 20.4873 81.5373 20.5701C81.2552 20.6509 81.0959 20.5104 80.8136 20.4288C80.5364 20.3491 80.1759 20.4288 79.994 20.6331C79.8148 20.8305 79.994 20.9918 79.3331 21.0761C78.6695 21.1528 78.9751 20.349 79.1141 19.483C79.2546 18.6175 79.7973 16.3244 79.6961 16.0259C79.5919 15.719 79.5708 15.8403 79.3334 15.5586C79.0911 15.2729 79.0756 14.7715 79.0506 13.9488C79.031 13.1236 79.0911 11.5946 79.0911 11.5946C79.0911 11.5946 78.5904 12.3382 78.3687 13.6422C78.1498 14.9556 79.051 15.6817 79.0759 15.8811C79.0914 16.0832 79.051 16.5632 78.655 18.8788C78.2505 21.1944 78.7505 21.6376 79.255 22.0429C79.7539 22.447 82.0009 23.6129 82.0009 23.6129L81.9586 24.6556C81.9586 24.6556 80.8516 25.0172 79.7977 25.7039C78.7411 26.3869 78.3536 27.6132 78.271 28.0177C78.1901 28.4218 78.4124 28.358 78.4124 28.358C78.4124 28.358 78.655 28.0988 79.4783 27.4531C80.2929 26.8107 82.0964 26.4649 82.3191 26.4482C82.5443 26.4304 82.5598 26.5089 82.2769 26.71C81.9967 26.9085 81.2552 27.4531 79.6768 28.6398C78.0943 29.8297 77.8713 31.3159 77.8713 31.661C77.8713 31.9985 78.0943 31.7223 78.0943 31.7223C78.0943 31.7223 78.3122 31.2152 78.8554 30.7149C79.3929 30.2125 80.6171 29.9088 81.9757 29.6888C83.3375 29.4659 83.5602 29.1241 83.9792 28.4976C84.3985 27.8794 85.5453 26.7099 85.7856 26.5662C86.0263 26.4302 86.0844 26.5087 85.9444 26.6062C85.8066 26.7099 85.7285 26.7902 85.0023 27.5749C84.2809 28.3578 84.1611 29.2871 84.1611 29.2871C84.1611 29.2871 84.5595 28.7425 85.4437 28.1155C86.3267 27.4886 88.4677 26.7901 89.0328 26.6491C89.5895 26.5081 89.5492 26.5854 89.4535 26.6678C89.3543 26.7491 89.2891 26.7696 88.6662 27.0903C88.0487 27.4125 85.8643 28.7192 82.9827 30.8546C80.0462 33.0412 77.6452 35.5713 75.2855 37.3341C72.9407 39.0848 71.1607 39.8693 70.2401 40.0322C69.3189 40.1923 68.2363 39.6515 66.8694 39.588C65.5109 39.5317 64.5887 40.4547 64.4484 40.6587C64.306 40.8572 64.306 41.04 64.4255 41.0187C64.5482 40.9965 64.7684 40.7566 64.9701 40.7566C65.1675 40.7566 65.1516 40.8783 65.1516 40.8783C65.1516 40.8783 65.053 40.9188 64.668 41.1137C64.2851 41.3226 63.706 41.8875 63.428 42.7577C63.1505 43.6152 63.8041 44.9018 63.8041 44.9018C63.8041 44.9018 64.2334 44.9018 64.8123 45.1463C65.3914 45.3862 65.7694 45.5456 66.0517 45.7099C66.3313 45.8703 66.6134 45.9081 67.1914 45.7553C67.7698 45.5878 68.9568 45.5878 69.7745 45.6308C70.5968 45.6686 73.7961 46.4532 75.8416 45.1108C82.2568 39.4509 88.9718 39.9364 91.3843 39.0848C96.3294 37.2796 95.5159 30.5696 104.214 31.5846C103.834 30.6276 97.0302 28.4231 92.7496 33.9054ZM73.8472 20.026C74.1692 20.2806 74.8034 21.4383 74.7206 21.2609C74.6358 21.0772 74.9787 19.9999 74.2588 18.675C73.5333 17.346 73.3152 16.8706 73.0038 15.5468C72.6911 14.2135 72.1251 13.1151 73.0671 12.2941C74.0202 11.476 74.754 10.2876 75.0545 9.02854C75.3574 7.76874 76.3644 6.77737 77.4945 5.39769C78.6224 4.02116 78.8451 3.82566 78.8451 3.82566C78.5796 4.18893 78.0513 5.65037 77.8026 6.4234C77.5463 7.19673 76.3221 8.88377 75.77 9.77998C75.2196 10.677 73.9542 12.4124 73.843 14.0332C73.7415 15.6499 75.068 17.5815 75.2643 18.2827C75.459 18.9853 74.9988 21 75.4838 22.4268C75.9599 23.8535 77.3063 25.1889 77.5475 25.3648C77.7885 25.532 77.7349 25.3648 77.6543 25.2624C77.5726 25.1704 77.4152 25.0236 77.0926 24.335C76.7696 23.6502 76.9153 22.8841 77.1395 21.849C77.3673 20.8113 77.4908 19.9739 77.3885 18.9352C77.2935 17.8969 76.4654 16.1362 76.2131 15.0593C75.9602 13.9872 76.6103 12.9324 77.68 11.1015C78.748 9.26563 78.9072 7.71659 79.0511 6.58172C79.1947 5.44653 79.8122 3.82849 81.5141 3.11376C82.4963 2.70622 85.2388 3.26798 86.6687 4.16955C87.6795 4.84411 88.1753 5.47614 88.3137 6.1945C88.4843 7.03872 87.9738 7.62081 87.6547 8.45464C87.3401 9.28753 87.1146 10.2436 87.4767 10.2071C87.7924 10.1738 91.4823 7.06172 92.3097 6.1611C92.7181 5.71118 93.2625 4.55929 92.4877 3.5287C91.813 2.63344 87.0228 2.2333 86.0915 0.940573C85.2695 -0.20281 83.1434 -0.142317 82.522 0.276409C81.9429 0.664416 80.6712 1.73833 79.4361 2.16068C78.1976 2.5857 76.922 2.79192 75.2499 3.64197C73.5796 4.50116 73.6445 5.49426 73.4675 6.22159C73.2859 6.94357 73.1502 8.90046 71.7851 10.9881C70.411 13.081 71.2095 14.5243 71.882 16.6392C72.5585 18.7498 73.5217 19.7743 73.8472 20.026ZM82.9306 18.9459C82.8975 19.1886 83.1363 18.9693 83.3302 18.6942C83.521 18.4169 84.278 17.1709 85.4912 15.0591C86.7088 12.9437 87.443 11.1359 87.371 11.0907C87.2994 11.0423 87.1175 11.2175 86.926 11.3645C86.7284 11.5072 86.3316 11.895 85.9938 12.3207C85.6629 12.7411 85.3856 12.7046 84.9656 12.7886C84.5427 12.8771 83.7749 13.7194 83.3298 14.0728C82.8847 14.4194 82.2954 14.7749 81.7435 14.866C81.1537 14.9644 81.0554 14.6979 80.8039 14.7434C80.553 14.7919 80.5613 15.2067 80.6458 15.4969C80.7339 15.7874 80.6621 15.9151 80.6137 16.4245C80.5668 16.9371 80.9267 17.4387 81.228 17.7285C81.5255 18.0171 81.4394 18.4661 81.6317 18.6205C81.8299 18.7761 81.8999 17.7386 81.8999 17.0971C81.8999 16.4604 81.7536 15.8334 81.7794 15.7367C81.8054 15.6384 82.3086 15.5071 82.545 15.3452C82.7897 15.1932 83.3799 14.7694 83.6634 14.6273C83.9541 14.478 83.9574 14.5893 83.8846 14.7577C83.8126 14.9258 83.6511 15.1836 83.3297 15.4561C83.0029 15.7367 82.2347 15.9508 82.0655 15.9619C81.8962 15.9763 81.9084 16.1267 82.0796 16.2575C82.2506 16.3887 82.6741 16.3887 83.0545 16.2953C83.4366 16.1916 83.3877 16.691 83.3402 17.2213C83.2932 17.7537 82.9692 18.7079 82.9306 18.9459ZM91.2088 1.57323C94.0725 2.50725 94.7081 4.98889 93.7149 6.12503C93.1635 6.75768 92.5352 7.13482 91.0945 8.03182C89.6553 8.92709 89.0891 9.39685 88.63 9.7428C88.1756 10.0984 87.9183 10.5902 88.917 10.3258C89.0187 10.2991 95.083 8.98616 95.8664 8.57405C97.1848 7.88736 97.5599 7.40357 97.7697 6.51114C97.9698 5.61461 96.6132 4.13852 95.9741 3.40488C94.6863 1.91587 91.6038 0.365101 91.4644 0.349347C89.9139 -0.170831 88.0098 0.257662 86.4653 0.334854C86.2972 0.342416 86.357 0.597464 86.4482 0.664258C87.827 1.63955 89.5152 1.17388 91.2088 1.57323Z" fill="#515491"/>
<path fill-rule="evenodd" clip-rule="evenodd" d="M2.04688 37.4812V20.832H5.79451V34.4561H11.7791V37.4812H2.04688Z" fill="#515491"/>
<path fill-rule="evenodd" clip-rule="evenodd" d="M14.2109 37.4812V20.832H17.9579V37.4812H14.2109Z" fill="#515491"/>
<path fill-rule="evenodd" clip-rule="evenodd" d="M30.5603 34.7509C32.1492 34.7509 33.4595 34.2224 34.4929 33.1656C35.5267 32.1073 36.0437 30.7821 36.0437 29.1904C36.0437 27.6138 35.5209 26.2867 34.4753 25.2098C33.4297 24.1337 32.1245 23.5953 30.5603 23.5953C28.9727 23.5953 27.6559 24.1318 26.6103 25.2043C25.5647 26.2774 25.0422 27.6061 25.0422 29.1904C25.0422 30.7977 25.5565 32.1265 26.5863 33.1767C27.6163 34.2263 28.9404 34.7509 30.5603 34.7509ZM39.8979 29.1901C39.8979 30.3812 39.6644 31.5062 39.1973 32.5678C38.7311 33.6289 38.0589 34.5615 37.1808 35.3654C36.2704 36.192 35.2455 36.8253 34.1038 37.2644C32.9621 37.7036 31.7809 37.924 30.5602 37.924C29.4908 37.924 28.444 37.7521 27.4181 37.4069C26.3928 37.0618 25.4532 36.567 24.5989 35.9225C23.4977 35.0891 22.6533 34.0919 22.067 32.932C21.4803 31.7724 21.1875 30.5247 21.1875 29.1904C21.1875 27.9925 21.4188 26.8688 21.8814 25.819C22.3444 24.7686 23.0235 23.8341 23.9164 23.0152C24.7945 22.2041 25.814 21.5749 26.9758 21.128C28.1363 20.6807 29.3318 20.457 30.5602 20.457C31.7809 20.457 32.9684 20.6807 34.1217 21.128C35.275 21.5751 36.2945 22.2041 37.1806 23.0152C38.066 23.8343 38.7408 24.7708 39.2034 25.8245C39.6662 26.8781 39.8979 27.9999 39.8979 29.1901Z" fill="#515491"/>
<path fill-rule="evenodd" clip-rule="evenodd" d="M43.0586 37.4812V20.832H46.9492L54.7062 30.5209C54.9304 30.7936 55.1755 31.1787 55.4432 31.6753C55.7102 32.1717 55.9882 32.7577 56.2749 33.4323C56.1868 32.9387 56.1231 32.4508 56.0836 31.9653C56.0431 31.4798 56.0226 30.8733 56.0226 30.1459V20.832H59.6031V37.4812H55.9274L47.955 27.6101C47.7314 27.3369 47.4883 26.9518 47.2243 26.4554C46.9615 25.9591 46.6817 25.3662 46.3866 24.6757C46.4747 25.1534 46.5382 25.6368 46.5784 26.1258C46.6179 26.6148 46.6377 27.2304 46.6377 27.9738V37.4812H43.0586Z" fill="#515491"/>
<path fill-rule="evenodd" clip-rule="evenodd" d="M62.3828 35.3671L64.4656 33.1273C64.7294 33.7409 65.1517 34.2237 65.7345 34.5771C66.317 34.9293 66.9715 35.1054 67.6979 35.1054C68.576 35.1054 69.2697 34.9082 69.7816 34.5144C70.2922 34.1199 70.5467 33.5892 70.5467 32.9222C70.5467 32.1336 69.6963 31.3494 67.9972 30.5678C67.4462 30.3185 67.0111 30.1127 66.6918 29.9536C65.1597 29.1956 64.0984 28.4548 63.5084 27.7311C62.9172 27.0068 62.6219 26.1443 62.6219 25.1441C62.6219 23.7715 63.1947 22.6437 64.3404 21.7606C65.4852 20.8771 66.9715 20.4355 68.7996 20.4355C69.861 20.4355 70.7759 20.6117 71.5466 20.9645C72.3158 21.3166 72.9977 21.868 73.5879 22.6193L71.3734 24.6316C71.1099 24.1471 70.7606 23.7846 70.3256 23.5453C69.8908 23.3063 69.3658 23.1874 68.7511 23.1874C68.0091 23.1874 67.4106 23.3636 66.9556 23.7159C66.5013 24.0688 66.2738 24.5258 66.2738 25.0861C66.2738 25.9659 67.1754 26.7697 68.979 27.4975C69.3379 27.6415 69.6129 27.7552 69.8053 27.8387C71.2892 28.4826 72.3888 29.2107 73.1028 30.0218C73.817 30.833 74.1737 31.758 74.1737 32.7968C74.1737 34.358 73.6133 35.6037 72.4922 36.533C71.3712 37.4612 69.8648 37.9253 67.9732 37.9253C66.6327 37.9253 65.483 37.7052 64.526 37.2656C63.5678 36.827 62.8529 36.1937 62.3828 35.3671Z" fill="#515491"/>
<path fill-rule="evenodd" clip-rule="evenodd" d="M10.2561 10.2242C9.73694 9.78432 9.20616 9.46169 8.66189 9.25674C8.11652 9.05195 7.53227 8.94987 6.91085 8.94987C5.63462 8.94987 4.61774 9.31282 3.86021 10.0373C3.10253 10.7629 2.72385 11.7368 2.72385 12.959C2.72385 14.1562 3.07478 15.1046 3.77899 15.8065C4.48273 16.5088 5.44128 16.8598 6.65698 16.8598C7.34959 16.8598 7.99265 16.7497 8.58725 16.529C9.18154 16.3092 9.73302 15.979 10.2397 15.5386L10.2235 18.033C9.67814 18.3384 9.1069 18.5662 8.50994 18.7165C7.9122 18.8662 7.28389 18.9421 6.6239 18.9421C4.71652 18.9421 3.15067 18.3784 1.9254 17.2519C0.701382 16.1256 0.0898438 14.6945 0.0898438 12.959C0.0898438 11.2291 0.702166 9.80181 1.93042 8.67843C3.15741 7.55395 4.73785 6.99219 6.6736 6.99219C7.32262 6.99219 7.94921 7.05678 8.55448 7.18627C9.16084 7.31576 9.75764 7.5152 10.3457 7.78458L10.2561 10.2242Z" fill="#515491"/>
<path fill-rule="evenodd" clip-rule="evenodd" d="M18.8335 14.3103L17.4924 10.6354C17.4536 10.527 17.4047 10.3406 17.3451 10.0758C17.2849 9.81226 17.222 9.48837 17.1565 9.10477C17.0859 9.47293 17.0177 9.80281 16.9522 10.0957C16.8866 10.3885 16.8377 10.5839 16.8053 10.6823L15.5126 14.3105L18.8335 14.3103ZM11.2109 18.6384L15.766 7.26367H18.6944L23.3158 18.6384H20.4036L19.4308 16.2223H14.7927L13.9593 18.6384H11.2109Z" fill="#515491"/>
<path fill-rule="evenodd" clip-rule="evenodd" d="M24.5781 18.6383V7.26367H27.2357L32.5358 13.8836C32.689 14.0698 32.8569 14.333 33.0384 14.6716C33.2217 15.0109 33.412 15.4113 33.6073 15.872C33.5472 15.5353 33.5041 15.2014 33.4762 14.8704C33.4494 14.5383 33.4354 14.1241 33.4354 13.6266V7.26367H35.8808V18.6384H33.3706L27.9231 11.8941C27.7705 11.7071 27.6041 11.4446 27.4241 11.1053C27.2433 10.7661 27.0536 10.3608 26.8515 9.88929C26.9112 10.2154 26.9547 10.5457 26.9821 10.8802C27.0095 11.214 27.0226 11.6351 27.0226 12.1431V18.6383H24.5781Z" fill="#515491"/>
<path fill-rule="evenodd" clip-rule="evenodd" d="M38.5469 18.6383V7.26367H41.2047L46.5044 13.8836C46.6576 14.0698 46.8255 14.333 47.0079 14.6716C47.1906 15.0109 47.3797 15.4113 47.5769 15.872C47.5159 15.5353 47.4727 15.2014 47.4454 14.8704C47.4179 14.5383 47.4045 14.1241 47.4045 13.6266V7.26367H49.8503V18.6384H47.3389L41.892 11.8941C41.7388 11.7071 41.573 11.4446 41.3929 11.1053C41.2127 10.7661 41.0225 10.3608 40.8207 9.88929C40.8804 10.2154 40.9236 10.5457 40.9513 10.8802C40.9783 11.214 40.9922 11.6351 40.9922 12.1431V18.6383H38.5469Z" fill="#515491"/>
<path fill-rule="evenodd" clip-rule="evenodd" d="M52.5156 18.6383V7.26367H59.5656V9.31493H55.0755V11.6535H59.5656V13.7201H55.0755V16.5713H59.5656V18.6383H52.5156Z" fill="#515491"/>
<path fill-rule="evenodd" clip-rule="evenodd" d="M61.3086 17.1938L62.7314 15.6633C62.9113 16.0829 63.2004 16.4126 63.5986 16.6538C63.9961 16.8946 64.4444 17.0151 64.9402 17.0151C65.5397 17.0151 66.014 16.8806 66.3629 16.6108C66.7119 16.3418 66.8871 15.9792 66.8871 15.5235C66.8871 14.9848 66.3064 14.4486 65.1445 13.9152C64.7679 13.7439 64.471 13.6039 64.2528 13.4952C63.2066 12.9775 62.481 12.4709 62.0776 11.9763C61.6743 11.4813 61.4721 10.8926 61.4721 10.2089C61.4721 9.27124 61.8632 8.50058 62.6463 7.89691C63.4283 7.29402 64.4444 6.99219 65.6921 6.99219C66.4179 6.99219 67.0429 7.11223 67.5704 7.35326C68.0956 7.59428 68.5611 7.97142 68.9647 8.48404L67.4513 9.85884C67.2717 9.52754 67.0329 9.28037 66.7359 9.11717C66.4389 8.95365 66.0803 8.87267 65.6601 8.87267C65.1538 8.87267 64.744 8.99256 64.4342 9.23406C64.1232 9.47445 63.9674 9.78621 63.9674 10.1698C63.9674 10.7708 64.5836 11.3201 65.8159 11.8171C66.061 11.9156 66.2497 11.9933 66.3801 12.0501C67.3945 12.4911 68.1458 12.9878 68.6329 13.5423C69.1211 14.0965 69.3652 14.7284 69.3652 15.4382C69.3652 16.5054 68.9828 17.3564 68.2168 17.9903C67.4505 18.6248 66.4215 18.9424 65.129 18.9424C64.2128 18.9424 63.4275 18.792 62.7739 18.4916C62.118 18.1915 61.6302 17.7589 61.3086 17.1938Z" fill="#515491"/>
</svg>
