<svg width="92" height="29" viewBox="0 0 92 29" fill="none" xmlns="http://www.w3.org/2000/svg">
<path fill-rule="evenodd" clip-rule="evenodd" d="M25.2581 1.79457V28.9236H18.7097V1.79457H25.2581ZM49.9986 9.27844C51.907 9.27844 53.6032 9.6031 55.0522 10.3237L54.5926 15.0816C53.4264 14.361 52.2601 14.0367 50.7406 14.0367C47.984 14.0367 45.8637 15.983 45.8637 19.227C45.8637 22.2191 48.3377 24.1648 51.0947 24.1648C52.5428 24.1648 53.9919 23.8409 55.0522 23.264L55.1936 28.0939C53.6032 28.6351 51.695 28.9236 49.9986 28.9236C43.92 28.9236 39.2904 25.3186 39.2904 19.1188C39.2904 12.8832 43.92 9.27844 49.9986 9.27844ZM65.1258 1.79457V18.0001H65.195L70.3538 10.0784H77.1292L70.9038 18.7234L77.6452 28.9236H70.147L65.195 19.5917H65.1258V28.9236H58.9355V1.79457H65.1258ZM89.5806 9.27844C90.3017 9.27844 91.0581 9.38904 91.6775 9.49982L91.3679 15.0282C90.6807 14.8072 89.9928 14.8072 89.2711 14.8072C86.3838 14.8072 84.7681 17.0555 84.7681 20.8152V28.9236H78.5807V9.72101H84.2181V13.2595H84.2871C85.3524 10.8266 86.8994 9.27844 89.5806 9.27844ZM11.3883 0.947266C12.7507 0.947266 13.7984 1.16418 14.602 1.30866L14.2174 5.79084C13.6938 5.60996 13.1697 5.5015 12.2265 5.5015C10.6196 5.5015 9.99097 6.65812 9.99097 8.50169V9.65849H14.4619V14.2124H9.99097V28.4894H3.70325V14.2124H0V9.65849H3.80798V8.50169C3.80798 2.89929 6.35785 0.947266 11.3883 0.947266ZM36.4839 9.27844V27.9881H29.9355V9.27844H36.4839ZM36.4839 1.79457V6.47199H29.9355V1.79457H36.4839Z" fill="#515491"/>
</svg>
